<svg xmlns="http://www.w3.org/2000/svg" style="display: none;">
  
    <symbol id="penguin-icon-category" viewBox="0 0 512 512">
      <path d="m96 371l0-163l320 0l0 163c0 16-10 29-26 29l-266 0c-16 0-28-13-28-29z m320-202l0 23l-320 0l0-56c0-15 12-24 28-24l60 0c6 0 14 5 21 13c8 9 14 19 19 19l166 0c16 0 26 9 26 25z"/>
    </symbol>
  
    <symbol id="penguin-icon-tag" viewBox="0 0 512 512">
      <path d="m128 160c0-21 11-32 32-32c21 0 32 11 32 32c0 21-11 32-32 32c-21 0-32-11-32-32z m311 129c6 6 9 14 9 23c0 9-3 16-9 22l-105 105c-6 6-13 9-22 9c-9 0-17-3-23-9l-214-207c-8-8-11-17-11-28l0-108c0-9 3-17 9-23c6-6 14-9 23-9l111 0c11 0 20 4 28 12z m-279-81c13 0 25-5 34-14c9-9 14-21 14-34c0-13-5-25-14-34c-9-9-21-14-34-14c-13 0-25 5-34 14c-9 9-14 21-14 34c0 13 5 25 14 34c9 9 21 14 34 14z"/>
    </symbol>
  
    <symbol id="penguin-icon-menu" viewBox="0 0 512 512">
      <path d="m417 224c17 0 31 14 31 32c0 18-14 32-31 32l-322 0c-17 0-31-14-31-32c0-18 14-32 31-32z m0-128c17 0 31 14 31 32c0 18-14 32-31 32l-322 0c-17 0-31-14-31-32c0-18 14-32 31-32z m0 256c17 0 31 14 31 32c0 18-14 32-31 32l-322 0c-17 0-31-14-31-32c0-18 14-32 31-32z"/>
    </symbol>
  
    <symbol id="penguin-icon-backtotop" viewBox="0 0 512 512">
      <path d="m256 214l-174 167c-4 4-12 4-16 0l-31-30c-4-4-4-12 0-16l213-204c2-2 5-3 8-3c3 0 6 1 8 3l213 204c4 4 4 12 0 16l-31 30c-4 4-12 4-16 0z"/>
    </symbol>
  
    <symbol id="penguin-icon-dropdown" viewBox="0 0 512 512">
      <path d="m256 298l174-167c4-4 12-4 16 0l31 30c4 4 4 12 0 16l-213 204c-2 2-5 3-8 3c-3 0-6-1-8-3l-213-204c-4-4-4-12 0-16l31-30c4-4 12-4 16 0z"/>
    </symbol>
  
    <symbol id="penguin-icon-search" viewBox="0 0 512 512">
      <path d="m448 425l-23 23l-113-113c-26 21-60 33-96 33c-84 0-152-68-152-152c0-84 68-152 152-152c84 0 152 68 152 152c0 36-12 69-33 95z m-328-112c26 26 60 39 96 39c36 0 70-14 96-40c26-26 40-60 40-96c0-36-14-70-40-96c-26-26-60-40-96-40c-36 0-70 14-96 40c-26 26-40 60-40 96c0 36 14 71 40 97z"/>
    </symbol>
  
</svg>
